<?xml version="1.0" standalone="no"?>
<!DOCTYPE svg PUBLIC "-//W3C//DTD SVG 20010904//EN"
 "http://www.w3.org/TR/2001/REC-SVG-20010904/DTD/svg10.dtd">
<svg version="1.0" xmlns="http://www.w3.org/2000/svg"
 width="1118.000000pt" height="1118.000000pt" viewBox="0 0 1118.000000 1118.000000"
 preserveAspectRatio="xMidYMid meet">
<metadata>
Created by potrace 1.14, written by Peter Selinger 2001-2017
</metadata>
<g transform="translate(0.000000,1118.000000) scale(0.100000,-0.100000)"
fill="#000000" stroke="none">
<path d="M6099 11176 c-2 -2 -35 -7 -74 -10 -69 -5 -147 -29 -215 -65 -19 -11
-161 -63 -315 -116 -428 -148 -710 -246 -935 -325 -459 -161 -576 -201 -590
-205 -8 -2 -163 -56 -345 -120 -181 -64 -460 -161 -620 -215 -159 -54 -326
-112 -370 -129 -76 -28 -168 -60 -427 -150 -359 -124 -501 -170 -563 -186 -38
-9 -72 -21 -74 -26 -1 -6 -26 -20 -55 -33 -93 -41 -312 -201 -315 -229 -1 -5
-21 -35 -46 -67 -77 -103 -88 -131 -93 -255 -2 -61 1 -144 8 -185 6 -41 13
-89 15 -106 1 -16 12 -48 23 -70 11 -22 79 -210 152 -419 72 -209 167 -481
210 -605 145 -415 1020 -2929 1222 -3510 110 -316 217 -624 238 -685 94 -267
89 -243 151 -745 33 -261 78 -621 100 -800 23 -179 41 -341 41 -360 0 -60 20
-225 28 -230 4 -3 11 -21 15 -40 22 -111 120 -324 193 -422 37 -50 193 -167
258 -194 20 -9 76 -38 124 -65 128 -72 267 -109 465 -124 50 -4 108 -11 131
-16 22 -4 87 -11 145 -14 57 -4 131 -11 164 -16 33 -5 93 -13 133 -19 40 -5
96 -13 126 -19 29 -5 93 -13 142 -17 49 -3 103 -12 119 -19 34 -14 242 -35
350 -35 39 0 135 -7 215 -15 80 -8 174 -17 210 -20 36 -3 81 -8 100 -10 54 -7
752 -73 1575 -150 33 -4 74 -8 90 -10 17 -2 57 -6 90 -9 100 -11 306 -36 369
-46 32 -5 62 -7 67 -5 4 3 110 7 236 8 208 3 233 5 291 26 146 53 314 222 401
404 27 57 71 212 71 251 0 18 4 36 9 42 5 5 14 86 21 179 14 201 60 722 105
1181 3 33 8 77 10 99 3 22 36 373 75 780 38 407 72 761 75 788 3 26 7 68 10
95 3 26 37 380 75 787 39 407 72 756 75 775 2 19 36 373 75 785 77 815 78 819
85 885 8 69 66 668 72 730 10 123 64 708 69 750 3 25 13 104 22 175 34 280 9
426 -96 566 -61 83 -167 148 -307 189 -22 7 -50 18 -62 26 -15 9 -68 16 -160
19 -131 5 -217 12 -483 40 -30 3 -214 21 -409 40 -215 20 -357 38 -361 45 -10
15 -40 278 -45 383 -4 94 -8 109 -73 237 -85 167 -207 253 -397 279 -152 22
-209 23 -285 6 -97 -21 -151 -29 -425 -62 -22 -2 -63 -8 -90 -12 -28 -4 -69
-7 -90 -7 l-40 1 -31 95 c-18 52 -39 121 -49 153 -20 70 -73 151 -153 232 -99
101 -209 145 -364 145 -47 0 -87 -2 -89 -4z"/>
<path d="M9503 2245 c-3 -9 -3 -18 -1 -21 3 -3 8 4 11 16 6 23 -1 27 -10 5z"/>
<path d="M9090 15 c-8 -9 -8 -15 -2 -15 12 0 26 19 19 26 -2 2 -10 -2 -17 -11z"/>
</g>
</svg>
